<svg width="18" height="11" viewBox="0 0 12 11" fill="none" xmlns="http://www.w3.org/2000/svg">
<path d="M11.9248 1.72932C11.8572 2.0434 11.7874 2.35686 11.7222 2.67157C11.2247 5.06708 10.7285 7.46259 10.2313 9.8581C10.1943 10.0366 10.1606 10.2164 10.1154 10.3931C9.94797 11.0502 9.48234 11.011 9.12076 10.7439C8.37696 10.1949 7.64257 9.63313 6.90424 9.07663C6.79443 8.99374 6.68128 8.91522 6.57572 8.82704C6.51566 8.77688 6.47926 8.78311 6.42496 8.83701C5.99755 9.2614 5.5665 9.68205 5.13758 10.1052C5.00987 10.2311 4.86488 10.3083 4.67074 10.3012C4.68196 10.1295 4.69227 9.96372 4.7038 9.79796C4.75416 9.07195 4.80299 8.34563 4.8582 7.61994C4.86245 7.56261 4.89673 7.49375 4.93828 7.45511C6.54326 5.96695 8.15067 4.48191 9.75777 2.99625C9.77749 2.97818 9.80388 2.96353 9.81541 2.94078C9.84119 2.88968 9.85939 2.83453 9.88093 2.78094C9.82542 2.76598 9.76536 2.72921 9.71591 2.74074C9.62612 2.76224 9.53633 2.80182 9.45777 2.8526C7.45693 4.13823 5.4573 5.42572 3.45889 6.7157C3.38427 6.764 3.32238 6.76992 3.24018 6.74312C2.40447 6.47235 1.56695 6.20781 0.731546 5.93548C0.62204 5.89965 0.51314 5.84481 0.420318 5.77564C0.267737 5.6619 0.248323 5.49739 0.38422 5.36621C0.497366 5.25715 0.633567 5.15837 0.777047 5.10011C1.60942 4.76141 2.44633 4.43548 3.28234 4.10613C5.89229 3.07695 8.50194 2.04839 11.1125 1.02201C11.1962 0.989293 11.2863 0.963742 11.3749 0.957199C11.6494 0.936634 11.829 1.07529 11.9003 1.34887C11.9069 1.37473 11.9167 1.39997 11.9248 1.42552V1.72932Z" fill="white"/>
</svg>
