<svg width="16" height="16" viewBox="0 0 16 16" fill="none" xmlns="http://www.w3.org/2000/svg">
<path fill-rule="evenodd" clip-rule="evenodd" d="M8.62327 4.65829C8.76045 4.31661 9.14865 4.15083 9.49033 4.28802C10.0096 4.49649 10.4793 4.8116 10.8692 5.21297C11.2591 5.61434 11.5604 6.09304 11.7537 6.61814C11.8809 6.96366 11.7039 7.34687 11.3584 7.47407C11.0129 7.60127 10.6297 7.42428 10.5025 7.07876C10.3736 6.7287 10.1727 6.40956 9.91281 6.14198C9.65289 5.8744 9.33973 5.66433 8.99355 5.52535C8.65187 5.38817 8.48609 4.99997 8.62327 4.65829Z" fill="white"/>
<path fill-rule="evenodd" clip-rule="evenodd" d="M8.90897 2.03188C9.00426 1.67624 9.36982 1.46518 9.72546 1.56048C10.8558 1.86336 11.8866 2.45845 12.714 3.28594C13.5415 4.11343 14.1366 5.14416 14.4395 6.27453C14.5348 6.63017 14.3237 6.99573 13.9681 7.09102C13.6125 7.18632 13.2469 6.97526 13.1516 6.61962C12.9093 5.71532 12.4332 4.89074 11.7712 4.22875C11.1093 3.56676 10.2847 3.09069 9.38037 2.84838C9.02473 2.75309 8.81367 2.38753 8.90897 2.03188Z" fill="white"/>
<path fill-rule="evenodd" clip-rule="evenodd" d="M3.31223 3.47699C4.92436 2.93927 6.55346 3.94911 7.00597 5.58407C7.31431 6.69816 7.02229 7.86638 6.31021 8.66631C6.45605 8.85519 6.61541 9.03679 6.78841 9.20992C6.96057 9.38221 7.14109 9.54097 7.32879 9.68632C8.12844 8.96862 9.30017 8.67332 10.4175 8.98301C12.0521 9.4361 13.0601 11.0665 12.5232 12.6785C12.1709 13.7362 11.5141 14.3789 10.6381 14.5904C9.82406 14.787 8.9464 14.578 8.17233 14.2562C6.61329 13.6082 5.07383 12.3316 4.37076 11.628C3.6511 10.9078 2.38003 9.36609 1.73781 7.80998C1.4189 7.03725 1.21356 6.16286 1.41057 5.35259C1.62252 4.48087 2.26189 3.82731 3.31223 3.47699ZM5.72094 5.93972C5.44582 4.94567 4.53166 4.4758 3.73411 4.74182C3.03305 4.97564 2.78989 5.32323 2.70615 5.66761C2.60748 6.07344 2.69328 6.6301 2.9703 7.30132C3.51995 8.63313 4.65987 10.031 5.31392 10.6855C5.95214 11.3242 7.34851 12.4698 8.68414 13.0251C9.3574 13.3049 9.91679 13.3929 10.3251 13.2943C10.6714 13.2107 11.0221 12.9661 11.2582 12.2572C11.5244 11.4578 11.0538 10.543 10.0613 10.2679C9.32275 10.0632 8.56339 10.3004 8.11146 10.7844C7.81963 11.0969 7.26334 11.2751 6.79004 10.9447C6.45703 10.7123 6.14076 10.4481 5.84525 10.1524C5.54927 9.85618 5.28501 9.53916 5.05252 9.2054C4.72424 8.73412 4.89941 8.17999 5.20969 7.88748C5.69011 7.43456 5.92495 6.67685 5.72094 5.93972Z" fill="white"/>
</svg>
