<svg width="424" height="68" viewBox="0 0 424 68" fill="none" xmlns="http://www.w3.org/2000/svg">
<path d="M27.4426 0.486694H423.131V41.1285C423.131 55.9588 411.051 68 396.174 68H0.485229V27.3582C0.485229 12.5279 12.565 0.486694 27.4426 0.486694Z" fill="#00B0E1"/>
<path d="M27.7421 16.6652H41.6596C49.3617 16.6652 56.0417 19.0734 56.0417 27.7287C56.0417 36.384 49.021 38.8025 41.3189 38.8025H33.4928V56.2263H27.7421V16.6652ZM42.5268 34.089C43.2186 34.089 50.0018 34.4183 50.0018 27.7287C50.0018 21.0391 43.2186 21.3685 42.5268 21.3685H33.4928V34.0787H42.5268V34.089Z" fill="white"/>
<path d="M68.5241 38.3704V56.2367H62.7733V16.6755H77.6097C84.5684 16.6755 91.7543 18.7545 91.7543 26.5967C91.7543 31.3617 88.7602 35.0359 83.9283 36.1268V36.24C88.9357 37.3927 89.5655 39.9141 90.2573 44.3498C90.8354 48.2915 91.3517 52.5111 92.8487 56.2367H86.6953C86.1791 53.8799 85.4873 51.307 85.2602 48.9502C84.7956 45.3893 84.744 42.1577 82.8442 40.1817C81.1717 38.3704 78.8796 38.3704 76.5772 38.3704H68.5241ZM68.4105 33.6568H77.8988C84.2794 33.6568 85.7248 30.6413 85.7248 27.5229C85.7248 24.4046 84.2897 21.3891 77.8988 21.3891H68.4105V33.6671V33.6568Z" fill="white"/>
<path d="M118.567 15.8522C131.514 15.8522 137.544 24.8883 137.544 36.4561C137.544 48.0239 131.504 57.06 118.567 57.06C105.63 57.06 99.5906 48.0239 99.5906 36.4561C99.5906 24.8883 105.63 15.8522 118.567 15.8522ZM118.567 52.3464C129.098 52.3464 131.514 44.6791 131.514 36.4561C131.514 28.2331 129.098 20.5658 118.567 20.5658C108.036 20.5658 105.63 28.0169 105.63 36.4561C105.63 44.8953 108.046 52.3464 118.567 52.3464Z" fill="white"/>
<path d="M146.237 16.6652H160.041C163.892 16.6652 167.98 17.046 171.315 19.0734C177.355 22.7475 180.112 28.9328 180.112 36.4457C180.112 43.9587 177.355 50.144 171.315 53.8181C167.98 55.8455 163.892 56.2263 160.041 56.2263H146.237V16.6652ZM151.988 51.5127H160.382C166.194 51.5127 169.302 49.2692 170.913 47.0153C173.391 43.619 174.072 40.1096 174.072 36.4355C174.072 32.7613 173.38 29.2622 170.913 25.8556C169.302 23.612 166.194 21.3582 160.382 21.3582H151.988V51.4922V51.5127Z" fill="white"/>
<path d="M221.585 40.5625C221.585 50.7512 216.124 57.06 204.849 57.06C193.575 57.06 188.113 50.7615 188.113 40.5625V16.6755H193.864V41.8798C193.864 48.6723 198.293 52.3464 204.849 52.3464C211.405 52.3464 215.835 48.6723 215.835 41.8798V16.6755H221.585V40.5625Z" fill="white"/>
<path d="M257.422 26.8643C257.133 23.0872 252.879 20.5658 248.626 20.5658C238.384 20.5658 236.494 29.4989 236.494 36.4561C236.494 44.6174 239.086 52.3464 248.109 52.3464C252.539 52.3464 256.565 50.2675 257.257 46.0479H263.297C262.719 52.6758 255.708 57.06 247.593 57.06C235.338 57.06 230.454 47.5299 230.454 36.4561C230.454 30.9192 231.776 25.1661 235.462 21.0598C238.218 18.0443 242.307 15.8522 248.285 15.8522C256.565 15.8522 262.832 19.7939 263.472 26.8643H257.432H257.422Z" fill="white"/>
<path d="M280.312 21.3787H266.394V16.6652H299.99V21.3787H286.073V56.2263H280.322V21.3787H280.312Z" fill="white"/>
<path d="M305.854 56.2263V16.6652H311.605V56.2263H305.854Z" fill="white"/>
<path d="M339.1 15.8522C352.047 15.8522 358.076 24.8883 358.076 36.4561C358.076 48.0239 352.036 57.06 339.1 57.06C326.163 57.06 320.123 48.0239 320.123 36.4561C320.123 24.8883 326.163 15.8522 339.1 15.8522ZM339.1 52.3464C349.631 52.3464 352.047 44.6791 352.047 36.4561C352.047 28.2331 349.631 20.5658 339.1 20.5658C328.569 20.5658 326.163 28.0169 326.163 36.4561C326.163 44.8953 328.579 52.3464 339.1 52.3464Z" fill="white"/>
<path d="M400.531 16.6652V56.2263H393.396L372.407 22.6343H372.293V56.2263H367.172V16.6652H375.05L395.296 49.3824H395.41V16.6652H400.531Z" fill="white"/>
</svg>
