<svg width="42" height="41" viewBox="0 0 42 41" fill="none" xmlns="http://www.w3.org/2000/svg">
<path d="M41.5046 20.0908C41.5046 30.8954 32.4532 39.6816 21.2535 39.6816C10.0537 39.6816 1.00232 30.8954 1.00232 20.0908C1.00232 9.28621 10.0537 0.5 21.2535 0.5C32.4532 0.5 41.5046 9.28621 41.5046 20.0908Z" stroke="white" stroke-opacity="0.79"/>
<path d="M27.0451 17.3986C27.1512 17.6802 26.8054 18.3271 26.008 19.3391C25.8973 19.4799 25.7475 19.6669 25.5585 19.9001C25.3741 20.1245 25.2474 20.283 25.1782 20.3754C25.1091 20.4678 25.0376 20.5778 24.9639 20.7054C24.8947 20.8286 24.8671 20.921 24.8809 20.9826C24.8993 21.0398 24.9293 21.1146 24.9708 21.207C25.0169 21.2994 25.0929 21.394 25.199 21.4908C25.305 21.5876 25.4364 21.7042 25.5931 21.8406C25.6115 21.8494 25.6231 21.8582 25.6277 21.867C26.2776 22.4435 26.7179 22.9297 26.9483 23.3257C26.9622 23.3477 26.976 23.3763 26.9898 23.4115C27.0083 23.4423 27.0244 23.4995 27.0382 23.5831C27.0567 23.6667 27.0567 23.7415 27.0382 23.8075C27.0198 23.8735 26.9622 23.9351 26.8654 23.9923C26.7686 24.0451 26.6326 24.0715 26.4574 24.0715L24.6873 24.0979C24.5767 24.1199 24.4476 24.1089 24.3001 24.0649C24.1526 24.0209 24.0327 23.9725 23.9405 23.9197L23.8022 23.8405C23.6639 23.7481 23.5026 23.6073 23.3182 23.4181C23.1338 23.2289 22.9748 23.0595 22.8411 22.9099C22.712 22.7559 22.5714 22.6283 22.4193 22.5271C22.2718 22.4215 22.1427 22.3863 22.0321 22.4215C22.0183 22.4259 21.9998 22.4347 21.9768 22.4479C21.9538 22.4567 21.9146 22.4875 21.8593 22.5403C21.8039 22.5931 21.7532 22.6591 21.7071 22.7383C21.6656 22.8131 21.6265 22.9275 21.5896 23.0815C21.5573 23.2311 21.5435 23.4005 21.5481 23.5897C21.5481 23.6557 21.5389 23.7173 21.5204 23.7745C21.5066 23.8273 21.4905 23.8669 21.472 23.8933L21.4444 23.9263C21.3614 24.0099 21.2393 24.0583 21.0779 24.0715H20.2827C19.9555 24.0891 19.6189 24.0539 19.2732 23.9659C18.9275 23.8735 18.6233 23.7569 18.3605 23.6161C18.1024 23.4709 17.865 23.3257 17.6483 23.1805C17.4363 23.0309 17.2749 22.9033 17.1643 22.7977L16.9914 22.6393C16.9453 22.5953 16.8808 22.5293 16.7978 22.4413C16.7195 22.3533 16.5558 22.153 16.3069 21.8406C16.058 21.5282 15.8136 21.196 15.5739 20.844C15.3342 20.492 15.0507 20.0277 14.7235 19.4513C14.4008 18.8749 14.1011 18.2765 13.8246 17.656C13.7969 17.5856 13.7831 17.5262 13.7831 17.4778C13.7831 17.4294 13.79 17.3942 13.8038 17.3722L13.8315 17.3326C13.9006 17.249 14.032 17.2072 14.2256 17.2072L16.1202 17.194C16.1755 17.2028 16.2285 17.2182 16.2792 17.2402C16.3299 17.2578 16.3668 17.2754 16.3899 17.293L16.4244 17.3128C16.4982 17.3612 16.5535 17.4316 16.5904 17.524C16.6826 17.744 16.7886 17.9728 16.9084 18.2105C17.0283 18.4437 17.1228 18.6219 17.1919 18.7451L17.3026 18.9365C17.4363 19.2005 17.5653 19.4293 17.6898 19.6229C17.8143 19.8165 17.9249 19.9683 18.0217 20.0783C18.1231 20.1839 18.2199 20.2676 18.3121 20.3292C18.4043 20.3908 18.4827 20.4216 18.5472 20.4216C18.6117 20.4216 18.674 20.4106 18.7339 20.3886C18.7431 20.3842 18.7546 20.3732 18.7685 20.3556C18.7823 20.338 18.8099 20.2896 18.8514 20.2104C18.8929 20.1311 18.9229 20.0277 18.9413 19.9001C18.9644 19.7725 18.9874 19.5943 19.0105 19.3655C19.0335 19.1367 19.0335 18.8617 19.0105 18.5405C19.0012 18.3645 18.9805 18.2039 18.9482 18.0586C18.916 17.9134 18.8837 17.8122 18.8514 17.755L18.8099 17.6758C18.6947 17.5262 18.4988 17.4316 18.2222 17.392C18.1623 17.3832 18.1738 17.3304 18.2568 17.2336C18.3305 17.15 18.4181 17.084 18.5195 17.0356C18.7638 16.9212 19.3147 16.8684 20.1721 16.8772C20.5501 16.8816 20.8613 16.9102 21.1056 16.963C21.1978 16.985 21.2738 17.0158 21.3337 17.0554C21.3983 17.0906 21.4467 17.1434 21.479 17.2138C21.5112 17.2798 21.5343 17.3502 21.5481 17.425C21.5665 17.4954 21.5758 17.5944 21.5758 17.722C21.5758 17.8496 21.5735 17.9706 21.5688 18.0851C21.5642 18.1995 21.5573 18.3557 21.5481 18.5537C21.5435 18.7473 21.5412 18.9277 21.5412 19.0949C21.5412 19.1433 21.5389 19.2357 21.5343 19.3721C21.5297 19.5085 21.5274 19.6141 21.5274 19.6889C21.532 19.7637 21.5412 19.8539 21.555 19.9595C21.5688 20.0607 21.5942 20.1465 21.6311 20.217C21.6726 20.283 21.7256 20.3358 21.7901 20.3754C21.827 20.3842 21.8662 20.393 21.9077 20.4018C21.9491 20.4106 22.0091 20.3864 22.0874 20.3292C22.1658 20.272 22.2534 20.1971 22.3502 20.1047C22.447 20.0079 22.5668 19.8605 22.7097 19.6625C22.8526 19.4601 23.0094 19.2225 23.1799 18.9497C23.4565 18.4921 23.7031 17.997 23.9198 17.4646C23.9382 17.4206 23.9613 17.3832 23.9889 17.3524C24.0166 17.3172 24.0419 17.293 24.065 17.2798L24.0926 17.26C24.1019 17.2556 24.1134 17.2512 24.1272 17.2468C24.141 17.238 24.171 17.2314 24.2171 17.227C24.2632 17.2182 24.3093 17.216 24.3554 17.2204L26.3468 17.2072C26.5266 17.1852 26.6741 17.1918 26.7893 17.227C26.9046 17.2578 26.976 17.293 27.0037 17.3326L27.0451 17.3986Z" fill="white"/>
</svg>
