<svg width="42" height="41" viewBox="0 0 42 41" fill="none" xmlns="http://www.w3.org/2000/svg">
<path d="M41.0069 20.0908C41.0069 30.8954 31.9555 39.6816 20.7558 39.6816C9.55602 39.6816 0.504639 30.8954 0.504639 20.0908C0.504639 9.28621 9.55602 0.5 20.7558 0.5C31.9555 0.5 41.0069 9.28621 41.0069 20.0908Z" stroke="white" stroke-opacity="0.79"/>
<path d="M19.5561 22.3741L22.6946 20.7796L19.5561 19.166V22.3741ZM20.7558 16.8763C21.482 16.8763 22.1823 16.8869 22.8567 16.9081C23.5354 16.9251 24.0325 16.9443 24.3481 16.9655L24.8215 16.9911C24.8258 16.9911 24.8625 16.9953 24.9317 17.0038C25.0009 17.0081 25.0506 17.0144 25.0808 17.0229C25.1111 17.0272 25.1608 17.0357 25.23 17.0485C25.3035 17.0612 25.3661 17.0782 25.418 17.0995C25.4699 17.1207 25.5304 17.1484 25.5996 17.1824C25.6687 17.2164 25.7358 17.2589 25.8006 17.31C25.8654 17.3567 25.9281 17.412 25.9886 17.4758C26.0146 17.5013 26.047 17.5417 26.0859 17.597C26.1291 17.648 26.1918 17.7713 26.274 17.9669C26.3604 18.1625 26.4188 18.3772 26.449 18.6111C26.4836 18.8832 26.5096 19.1745 26.5268 19.4849C26.5485 19.791 26.5614 20.0312 26.5658 20.2056V21.3281C26.5701 21.9447 26.5312 22.5612 26.449 23.1777C26.4188 23.4116 26.3647 23.6242 26.2869 23.8155C26.2091 24.0026 26.1399 24.1323 26.0794 24.2046L25.9886 24.313C25.9281 24.3768 25.8654 24.4342 25.8006 24.4852C25.7358 24.532 25.6687 24.5724 25.5996 24.6064C25.5304 24.6362 25.4699 24.6617 25.418 24.683C25.3661 24.7042 25.3035 24.7212 25.23 24.734C25.1608 24.7467 25.1089 24.7574 25.0743 24.7659C25.0441 24.7701 24.9944 24.7765 24.9252 24.785C24.8604 24.7893 24.8258 24.7914 24.8215 24.7914C23.7364 24.8722 22.3812 24.9126 20.7558 24.9126C19.8609 24.9041 19.0828 24.8913 18.4214 24.8743C17.7643 24.853 17.332 24.836 17.1245 24.8233L16.8068 24.7978L16.5733 24.7722C16.4177 24.751 16.2988 24.7297 16.2167 24.7085C16.1389 24.6872 16.0286 24.6426 15.886 24.5745C15.7477 24.5065 15.6266 24.4193 15.5229 24.313C15.4969 24.2875 15.4623 24.2493 15.4191 24.1982C15.3802 24.143 15.3175 24.0175 15.2311 23.8219C15.1489 23.6263 15.0927 23.4116 15.0625 23.1777C15.0279 22.9056 14.9998 22.6165 14.9782 22.3103C14.9609 21.9999 14.9501 21.7576 14.9458 21.5832V20.4607C14.9414 19.8442 14.9803 19.2276 15.0625 18.6111C15.0927 18.3772 15.1468 18.1667 15.2246 17.9796C15.3024 17.7883 15.3716 17.6565 15.4321 17.5842L15.5229 17.4758C15.5834 17.412 15.6461 17.3567 15.7109 17.31C15.7758 17.2589 15.8428 17.2164 15.9119 17.1824C15.9811 17.1484 16.0416 17.1207 16.0935 17.0995C16.1454 17.0782 16.2059 17.0612 16.2751 17.0485C16.3485 17.0357 16.4004 17.0272 16.4307 17.0229C16.4609 17.0144 16.5107 17.0081 16.5798 17.0038C16.649 16.9953 16.6857 16.9911 16.6901 16.9911C17.7751 16.9145 19.1303 16.8763 20.7558 16.8763Z" fill="white"/>
</svg>
